<svg width="20" height="20" viewBox="0 0 20 20" fill="none" xmlns="http://www.w3.org/2000/svg">
<path d="M4.99935 3.33464H14.9993C16.8403 3.33464 18.3327 4.82702 18.3327 6.66797V10.8346C18.3327 12.6756 16.8403 14.168 14.9993 14.168H8.33268C6.49173 14.168 4.99935 12.6756 4.99935 10.8346V3.33464ZM4.99935 3.33464C4.99935 2.41416 4.25316 1.66797 3.33268 1.66797H1.66602" stroke="#262626" stroke-linecap="round" stroke-linejoin="round"/>
<path d="M9.16602 17.082C9.16602 17.7724 8.60637 18.332 7.91602 18.332C7.22566 18.332 6.66602 17.7724 6.66602 17.082C6.66602 16.3917 7.22566 15.832 7.91602 15.832C8.60637 15.832 9.16602 16.3917 9.16602 17.082Z" stroke="#262626"/>
<path d="M16.666 17.082C16.666 17.7724 16.1064 18.332 15.416 18.332C14.7257 18.332 14.166 17.7724 14.166 17.082C14.166 16.3917 14.7257 15.832 15.416 15.832C16.1064 15.832 16.666 16.3917 16.666 17.082Z" stroke="#262626"/>
<path d="M9.16602 7.08203H14.166" stroke="#262626" stroke-linecap="round" stroke-linejoin="round"/>
<path d="M9.16602 10.418H14.166" stroke="#262626" stroke-linecap="round" stroke-linejoin="round"/>
</svg>
